{
  "accessors": [
    {
      "bufferView": 2,
      "componentType": 5126,
      "count": 29864,
      "max": [
        0.16402696073055267,
        0.10751604288816452,
        0.12847217917442322
      ],
      "min": [
        -0.16402694582939148,
        -0.1582484394311905,
        -0.029751062393188477
      ],
      "type": "VEC3"
    },
    {
      "bufferView": 2,
      "byteOffset": 358368,
      "componentType": 5126,
      "count": 29864,
      "max": [
        0.9999534487724304,
        0.9998834729194641,
        0.9999911189079285
      ],
      "min": [
        -0.9999534487724304,
        -0.9998804330825806,
        -0.9999998211860657
      ],
      "type": "VEC3"
    },
    {
      "bufferView": 1,
      "componentType": 5126,
      "count": 29864,
      "max": [
        1.00038743019104,
        0.9822717308998108
      ],
      "min": [
        0.0004893856239505112,
        0.00041991472244262695
      ],
      "type": "VEC2"
    },
    {
      "bufferView": 1,
      "byteOffset": 238912,
      "componentType": 5126,
      "count": 29864,
      "max": [
        1.00038743019104,
        0.9822717308998108
      ],
      "min": [
        0.0004893856239505112,
        0.00041991472244262695
      ],
      "type": "VEC2"
    },
    {
      "bufferView": 1,
      "byteOffset": 477824,
      "componentType": 5126,
      "count": 29864,
      "max": [
        1.00038743019104,
        0.9822717308998108
      ],
      "min": [
        0.0004893856239505112,
        0.00041991472244262695
      ],
      "type": "VEC2"
    },
    {
      "bufferView": 1,
      "byteOffset": 716736,
      "componentType": 5126,
      "count": 29864,
      "max": [
        1.00038743019104,
        0.9822717308998108
      ],
      "min": [
        0.0004893856239505112,
        0.00041991472244262695
      ],
      "type": "VEC2"
    },
    {
      "bufferView": 1,
      "byteOffset": 955648,
      "componentType": 5126,
      "count": 29864,
      "max": [
        1.00038743019104,
        0.9822717308998108
      ],
      "min": [
        0.0004893856239505112,
        0.00041991472244262695
      ],
      "type": "VEC2"
    },
    {
      "bufferView": 1,
      "byteOffset": 1194560,
      "componentType": 5126,
      "count": 29864,
      "max": [
        1.00038743019104,
        0.9822717308998108
      ],
      "min": [
        0.0004893856239505112,
        0.00041991472244262695
      ],
      "type": "VEC2"
    },
    {
      "bufferView": 1,
      "byteOffset": 1433472,
      "componentType": 5126,
      "count": 29864,
      "max": [
        1.00038743019104,
        0.9822717308998108
      ],
      "min": [
        0.0004893856239505112,
        0.00041991472244262695
      ],
      "type": "VEC2"
    },
    {
      "bufferView": 1,
      "byteOffset": 1672384,
      "componentType": 5126,
      "count": 29864,
      "max": [
        1.00038743019104,
        0.9822717308998108
      ],
      "min": [
        0.0004893856239505112,
        0.00041991472244262695
      ],
      "type": "VEC2"
    },
    {
      "bufferView": 1,
      "byteOffset": 1911296,
      "componentType": 5126,
      "count": 29864,
      "max": [
        1.00038743019104,
        0.9822717308998108
      ],
      "min": [
        0.0004893856239505112,
        0.00041991472244262695
      ],
      "type": "VEC2"
    },
    {
      "bufferView": 0,
      "componentType": 5125,
      "count": 133536,
      "type": "SCALAR"
    },
    {
      "bufferView": 2,
      "byteOffset": 716736,
      "componentType": 5126,
      "count": 11884,
      "max": [
        0.13787941634655,
        0.019526667892932892,
        0.11727680265903473
      ],
      "min": [
        -0.13787941634655,
        -0.08083699643611908,
        0.022484201937913895
      ],
      "type": "VEC3"
    },
    {
      "bufferView": 2,
      "byteOffset": 859344,
      "componentType": 5126,
      "count": 11884,
      "max": [
        0.9999586343765259,
        0.99990314245224,
        0.9999027848243713
      ],
      "min": [
        -0.9999586343765259,
        -0.999823272228241,
        -0.9998948574066162
      ],
      "type": "VEC3"
    },
    {
      "bufferView": 1,
      "byteOffset": 2150208,
      "componentType": 5126,
      "count": 11884,
      "max": [
        1.0,
        1.0
      ],
      "min": [
        -0.0,
        0.0
      ],
      "type": "VEC2"
    },
    {
      "bufferView": 1,
      "byteOffset": 2245280,
      "componentType": 5126,
      "count": 11884,
      "max": [
        1.0,
        1.0
      ],
      "min": [
        -0.0,
        0.0
      ],
      "type": "VEC2"
    },
    {
      "bufferView": 1,
      "byteOffset": 2340352,
      "componentType": 5126,
      "count": 11884,
      "max": [
        1.0,
        1.0
      ],
      "min": [
        -0.0,
        0.0
      ],
      "type": "VEC2"
    },
    {
      "bufferView": 1,
      "byteOffset": 2435424,
      "componentType": 5126,
      "count": 11884,
      "max": [
        1.0,
        1.0
      ],
      "min": [
        -0.0,
        0.0
      ],
      "type": "VEC2"
    },
    {
      "bufferView": 1,
      "byteOffset": 2530496,
      "componentType": 5126,
      "count": 11884,
      "max": [
        1.0,
        1.0
      ],
      "min": [
        -0.0,
        0.0
      ],
      "type": "VEC2"
    },
    {
      "bufferView": 1,
      "byteOffset": 2625568,
      "componentType": 5126,
      "count": 11884,
      "max": [
        1.0,
        1.0
      ],
      "min": [
        -0.0,
        0.0
      ],
      "type": "VEC2"
    },
    {
      "bufferView": 1,
      "byteOffset": 2720640,
      "componentType": 5126,
      "count": 11884,
      "max": [
        1.0,
        1.0
      ],
      "min": [
        -0.0,
        0.0
      ],
      "type": "VEC2"
    },
    {
      "bufferView": 1,
      "byteOffset": 2815712,
      "componentType": 5126,
      "count": 11884,
      "max": [
        1.0,
        1.0
      ],
      "min": [
        -0.0,
        0.0
      ],
      "type": "VEC2"
    },
    {
      "bufferView": 1,
      "byteOffset": 2910784,
      "componentType": 5126,
      "count": 11884,
      "max": [
        1.0,
        1.0
      ],
      "min": [
        -0.0,
        0.0
      ],
      "type": "VEC2"
    },
    {
      "bufferView": 0,
      "byteOffset": 534144,
      "componentType": 5125,
      "count": 45000,
      "type": "SCALAR"
    },
    {
      "bufferView": 2,
      "byteOffset": 1001952,
      "componentType": 5126,
      "count": 552,
      "max": [
        134.88070678710938,
        47.25656509399414,
        0.0
      ],
      "min": [
        2.9925003051757813,
        -0.7481250762939453,
        -15.0
      ],
      "type": "VEC3"
    },
    {
      "bufferView": 2,
      "byteOffset": 1008576,
      "componentType": 5126,
      "count": 552,
      "max": [
        1.0,
        1.0,
        1.0
      ],
      "min": [
        -1.0,
        -1.0,
        -1.0
      ],
      "type": "VEC3"
    },
    {
      "bufferView": 0,
      "byteOffset": 714144,
      "componentType": 5125,
      "count": 1452,
      "type": "SCALAR"
    },
    {
      "bufferView": 2,
      "byteOffset": 1015200,
      "componentType": 5126,
      "count": 1218,
      "max": [
        163.1536102294922,
        46.66429901123047,
        0.0
      ],
      "min": [
        3.241875171661377,
        -15.024845123291016,
        -15.0
      ],
      "type": "VEC3"
    },
    {
      "bufferView": 2,
      "byteOffset": 1029816,
      "componentType": 5126,
      "count": 1218,
      "max": [
        1.0,
        1.0,
        1.0
      ],
      "min": [
        -1.0,
        -1.0,
        -1.0
      ],
      "type": "VEC3"
    },
    {
      "bufferView": 0,
      "byteOffset": 719952,
      "componentType": 5125,
      "count": 3414,
      "type": "SCALAR"
    }
  ],
  "asset": {
    "extras": {
      "author": "hoanglong21 (https://sketchfab.com/hoanglong21)",
      "license": "CC-BY-4.0 (http://creativecommons.org/licenses/by/4.0/)",
      "source": "https://sketchfab.com/3d-models/study-purpose-64b6de6073094475b4e9d2bcaa799ec1",
      "title": "Study purpose"
    },
    "generator": "Sketchfab-11.88.0",
    "version": "2.0"
  },
  "bufferViews": [
    {
      "buffer": 0,
      "byteLength": 733608,
      "name": "floatBufferViews",
      "target": 34963
    },
    {
      "buffer": 0,
      "byteLength": 3005856,
      "byteOffset": 733608,
      "byteStride": 8,
      "name": "floatBufferViews",
      "target": 34962
    },
    {
      "buffer": 0,
      "byteLength": 1044432,
      "byteOffset": 3739464,
      "byteStride": 12,
      "name": "floatBufferViews",
      "target": 34962
    }
  ],
  "buffers": [
    {
      "byteLength": 4783896,
      "uri": "scene.bin"
    }
  ],
  "images": [
    {
      "uri": "textures/Material_33_baseColor.png"
    },
    {
      "uri": "textures/Material_34_baseColor.png"
    }
  ],
  "materials": [
    {
      "doubleSided": true,
      "name": "Material_33",
      "pbrMetallicRoughness": {
        "baseColorTexture": {
          "index": 0
        },
        "metallicFactor": 0.0,
        "roughnessFactor": 0.9555123008528605
      }
    },
    {
      "doubleSided": true,
      "name": "Material_34",
      "pbrMetallicRoughness": {
        "baseColorTexture": {
          "index": 1
        },
        "metallicFactor": 0.0,
        "roughnessFactor": 0.9555123008528605
      }
    },
    {
      "doubleSided": true,
      "name": "Material_66",
      "pbrMetallicRoughness": {
        "baseColorFactor": [
          0.0,
          0.0,
          0.0,
          1.0
        ],
        "metallicFactor": 0.0,
        "roughnessFactor": 0.9381616368038065
      }
    },
    {
      "doubleSided": true,
      "name": "Material_57",
      "pbrMetallicRoughness": {
        "baseColorFactor": [
          0.0,
          0.0,
          0.0,
          1.0
        ],
        "metallicFactor": 0.0,
        "roughnessFactor": 0.9381616368038065
      }
    }
  ],
  "meshes": [
    {
      "name": "node_id4_Material_33_0",
      "primitives": [
        {
          "attributes": {
            "NORMAL": 1,
            "POSITION": 0,
            "TEXCOORD_0": 2,
            "TEXCOORD_1": 3,
            "TEXCOORD_2": 4,
            "TEXCOORD_3": 5,
            "TEXCOORD_4": 6,
            "TEXCOORD_5": 7,
            "TEXCOORD_6": 8,
            "TEXCOORD_7": 9,
            "TEXCOORD_8": 10
          },
          "indices": 11,
          "material": 0,
          "mode": 4
        }
      ]
    },
    {
      "name": "node_id6_Material_34_0",
      "primitives": [
        {
          "attributes": {
            "NORMAL": 13,
            "POSITION": 12,
            "TEXCOORD_0": 14,
            "TEXCOORD_1": 15,
            "TEXCOORD_2": 16,
            "TEXCOORD_3": 17,
            "TEXCOORD_4": 18,
            "TEXCOORD_5": 19,
            "TEXCOORD_6": 20,
            "TEXCOORD_7": 21,
            "TEXCOORD_8": 22
          },
          "indices": 23,
          "material": 1,
          "mode": 4
        }
      ]
    },
    {
      "name": "node_id54_Material_66_0",
      "primitives": [
        {
          "attributes": {
            "NORMAL": 25,
            "POSITION": 24
          },
          "indices": 26,
          "material": 2,
          "mode": 4
        }
      ]
    },
    {
      "name": "node_id36_Material_57_0",
      "primitives": [
        {
          "attributes": {
            "NORMAL": 28,
            "POSITION": 27
          },
          "indices": 29,
          "material": 3,
          "mode": 4
        }
      ]
    }
  ],
  "nodes": [
    {
      "children": [
        1
      ],
      "matrix": [
        1.0,
        0.0,
        0.0,
        0.0,
        0.0,
        2.220446049250313e-16,
        -1.0,
        0.0,
        0.0,
        1.0,
        2.220446049250313e-16,
        0.0,
        0.0,
        0.0,
        0.0,
        1.0
      ],
      "name": "Sketchfab_model"
    },
    {
      "children": [
        2
      ],
      "matrix": [
        0.009999999776482582,
        0.0,
        0.0,
        0.0,
        0.0,
        0.0,
        0.009999999776482582,
        0.0,
        0.0,
        -0.009999999776482582,
        0.0,
        0.0,
        0.0,
        0.0,
        0.0,
        1.0
      ],
      "name": "6c046803765f41a1991fe43dc2777718.fbx"
    },
    {
      "children": [
        3
      ],
      "name": "RootNode"
    },
    {
      "children": [
        4,
        9,
        12
      ],
      "name": "root"
    },
    {
      "children": [
        5,
        7
      ],
      "matrix": [
        -0.00024156548474421865,
        3.2205162964322993e-10,
        -0.0009703840890352079,
        0.0,
        -5.336491298872796e-11,
        0.0010000000474973904,
        3.4516514625390204e-10,
        0.0,
        0.0009703842020028832,
        1.3516445766389486e-10,
        -0.00024156551286612208,
        0.0,
        -0.24841688573360443,
        -0.15886959433555603,
        0.28938621282577515,
        1.0
      ],
      "name": "node_id8"
    },
    {
      "children": [
        6
      ],
      "matrix": [
        1560.7193603515625,
        -1.0842021724691846e-19,
        -5.684341886080802e-14,
        0.0,
        -5.684341886082494e-14,
        -0.000254273472736983,
        -1560.7193603515418,
        0.0,
        9.91592483058036e-20,
        1560.7193603515418,
        -0.000254273472736983,
        0.0,
        0.0005024975980632007,
        -77.0379867553711,
        216.40953063964844,
        1.0
      ],
      "name": "node_id4"
    },
    {
      "mesh": 0,
      "name": "node_id4_Material_33_0"
    },
    {
      "children": [
        8
      ],
      "matrix": [
        1560.7193603515625,
        -1.0842021724691846e-19,
        -5.684341886080802e-14,
        0.0,
        -5.684341886082494e-14,
        -0.000254273472736983,
        -1560.7193603515418,
        0.0,
        9.91592483058036e-20,
        1560.7193603515418,
        -0.000254273472736983,
        0.0,
        0.0005024975980632007,
        -77.0379867553711,
        216.40953063964844,
        1.0
      ],
      "name": "node_id6"
    },
    {
      "mesh": 1,
      "name": "node_id6_Material_34_0"
    },
    {
      "children": [
        10
      ],
      "matrix": [
        0.001159877932340603,
        7.450581495510615e-11,
        -0.00046602940171023655,
        0.0,
        0.00046602966212444465,
        -2.561149062107615e-10,
        0.0011598785804728304,
        0.0,
        -2.6351487918707543e-11,
        -0.001250000204890938,
        -2.654270155749768e-10,
        0.0,
        -0.05289018154144287,
        -0.2917156219482422,
        0.09181754291057587,
        1.0
      ],
      "name": "node_id54"
    },
    {
      "children": [
        11
      ],
      "matrix": [
        1.0,
        0.0,
        -0.0,
        0.0,
        0.0,
        1.0,
        0.0,
        0.0,
        0.0,
        0.0,
        1.0,
        0.0,
        -68.93659973144531,
        -23.25421905517578,
        7.5,
        1.0
      ],
      "name": "Object_10"
    },
    {
      "mesh": 2,
      "name": "node_id54_Material_66_0"
    },
    {
      "children": [
        13
      ],
      "matrix": [
        0.0012500000884756097,
        -8.881784792571291e-18,
        -2.957029066052914e-10,
        0.0,
        2.957028515263369e-10,
        7.450578279333432e-11,
        0.0012499998556449639,
        0.0,
        8.74347688485853e-18,
        -0.0012499998556449988,
        7.450578279333432e-11,
        0.0,
        0.0314258448779583,
        -0.2916250228881836,
        0.3938797414302826,
        1.0
      ],
      "name": "node_id36"
    },
    {
      "children": [
        14
      ],
      "matrix": [
        1.0,
        0.0,
        -0.0,
        0.0,
        0.0,
        1.0,
        0.0,
        0.0,
        0.0,
        0.0,
        1.0,
        0.0,
        -83.19774627685547,
        -15.819726943969727,
        7.5,
        1.0
      ],
      "name": "Object_13"
    },
    {
      "mesh": 3,
      "name": "node_id36_Material_57_0"
    }
  ],
  "samplers": [
    {
      "magFilter": 9729,
      "minFilter": 9987,
      "wrapS": 10497,
      "wrapT": 10497
    }
  ],
  "scene": 0,
  "scenes": [
    {
      "name": "Sketchfab_Scene",
      "nodes": [
        0
      ]
    }
  ],
  "textures": [
    {
      "sampler": 0,
      "source": 0
    },
    {
      "sampler": 0,
      "source": 1
    }
  ]
}
